<svg preserveAspectRatio="xMidYMid meet" width="100%" height="100%" overflow="visible" style="display: block;" viewBox="0 0 23.998 36.5646" fill="none" xmlns="http://www.w3.org/2000/svg">
<g id="Knowledge">
<path id="Vector" d="M20.8316 3.6695C19.6858 2.50769 18.3128 1.58399 16.7946 0.953532C15.2764 0.323071 13.6441 -0.0012244 11.9952 3.47379e-06C8.81386 3.47379e-06 5.76284 1.23825 3.51331 3.44233C1.26377 5.64642 0 8.6358 0 11.7528C0.120017 13.9471 0.758787 16.084 1.86592 17.9949C2.21333 18.6708 2.52473 19.3638 2.79887 20.0712L5.46447 26.6006C5.56063 26.8375 5.72544 27.0416 5.9386 27.1878C6.15175 27.334 6.40391 27.4159 6.66399 27.4233H17.3264C17.5933 27.4236 17.8542 27.3453 18.0751 27.1986C18.2961 27.0519 18.4671 26.8436 18.5659 26.6006L21.2315 20.0712C21.538 19.3269 21.8579 18.6348 22.1644 17.9557C23.2059 16.0347 23.8277 13.9222 23.9903 11.7528C24.0463 10.2665 23.7954 8.78445 23.2526 7.39546C22.7098 6.00646 21.8864 4.73915 20.8316 3.6695Z" fill="var(--fill-0, #FBC02D)"/>
<path id="Vector_2" d="M17.3265 28.7292H6.6641C6.31062 28.7292 5.97162 28.8668 5.72167 29.1117C5.47172 29.3566 5.3313 29.6887 5.3313 30.0351L5.3313 33.9527C5.32957 34.1961 5.39729 34.4351 5.52682 34.6427C5.65634 34.8504 5.84252 35.0185 6.06434 35.128L8.72994 36.4338C8.91675 36.5225 9.12212 36.5673 9.32969 36.5644H14.6609C14.8685 36.5673 15.0738 36.5225 15.2606 36.4338L17.9262 35.128C18.1481 35.0185 18.3342 34.8504 18.4638 34.6427C18.5933 34.4351 18.661 34.1961 18.6593 33.9527V30.0351C18.6593 29.6887 18.5189 29.3566 18.2689 29.1117C18.019 28.8668 17.68 28.7292 17.3265 28.7292Z" fill="var(--fill-0, #FF6F00)"/>
<g id="Vector_3">
</g>
<g id="Vector_4">
</g>
<path id="Vector_5" d="M11.9952 2.6226e-06C8.81386 2.6226e-06 5.76284 1.23824 3.51331 3.44233C1.26377 5.64642 0 8.6358 0 11.7528C0.10756 13.9415 0.737514 16.075 1.83926 17.9819C2.18579 18.7001 2.50566 19.3661 2.77222 20.0712L5.43781 26.6006C5.53573 26.8415 5.70463 27.0484 5.92301 27.1949C6.14138 27.3415 6.39933 27.421 6.66399 27.4233H11.9952V2.6226e-06Z" fill="var(--fill-0, #FFEE58)"/>
<path id="Vector_6" d="M6.66407 28.7292C6.31059 28.7292 5.97159 28.8668 5.72164 29.1117C5.47169 29.3566 5.33127 29.6887 5.33127 30.0351V33.9527C5.33325 34.1952 5.40413 34.4324 5.53596 34.6377C5.66778 34.843 5.85535 35.0082 6.07764 35.1149L8.74323 36.4208C8.9249 36.512 9.12554 36.5612 9.32966 36.5644H11.9953V28.7292H6.66407Z" fill="var(--fill-0, #FF8F00)"/>
<path id="Vector_7" d="M14.6607 10.4469C15.0142 10.4469 15.3532 10.3093 15.6031 10.0644C15.8531 9.8195 15.9935 9.48734 15.9935 9.141C15.9935 8.79467 15.8531 8.46251 15.6031 8.21761C15.3532 7.97272 15.0142 7.83513 14.6607 7.83513H11.9951V10.4469H14.6607Z" fill="var(--fill-0, #FF6F00)"/>
<path id="Vector_8" d="M17.3263 13.0586H11.9951V15.6703H17.3263C17.6798 15.6703 18.0188 15.5328 18.2687 15.2879C18.5187 15.043 18.6591 14.7108 18.6591 14.3645C18.6591 14.0181 18.5187 13.686 18.2687 13.4411C18.0188 13.1962 17.6798 13.0586 17.3263 13.0586Z" fill="var(--fill-0, #FF6F00)"/>
<path id="Vector_9" d="M8.79622 13.0585L10.129 10.4468H11.9949V7.83506L9.32934 7.83506C9.08322 7.83579 8.84211 7.90329 8.63274 8.03006C8.42336 8.15683 8.25391 8.33793 8.14315 8.55329L5.47756 13.7768C5.36058 13.9753 5.299 14.2005 5.299 14.4297C5.299 14.6589 5.36058 14.8841 5.47756 15.0826C5.60551 15.2737 5.7824 15.4286 5.99055 15.5317C6.19871 15.6348 6.43084 15.6826 6.66375 15.6703H11.9949V13.0585H8.79622Z" fill="var(--fill-0, #FF8F00)"/>
<path id="Vector_10" d="M10.6621 14.3644V19.5879C10.6621 19.9342 10.8026 20.2664 11.0525 20.5113C11.3025 20.7561 11.6415 20.8937 11.9949 20.8937V13.0585C11.6415 13.0585 11.3025 13.1961 11.0525 13.441C10.8026 13.6859 10.6621 14.018 10.6621 14.3644Z" fill="var(--fill-0, #FF8F00)"/>
<path id="Vector_11" d="M11.9951 13.0586V20.8938C12.3486 20.8938 12.6876 20.7562 12.9375 20.5113C13.1875 20.2664 13.3279 19.9343 13.3279 19.5879V14.3645C13.3279 14.0181 13.1875 13.686 12.9375 13.4411C12.6876 13.1962 12.3486 13.0586 11.9951 13.0586Z" fill="var(--fill-0, #FF6F00)"/>
<path id="Vector_12" d="M17.3264 27.4233H6.66399C6.39933 27.421 6.14138 27.3415 5.92301 27.1949C5.70463 27.0484 5.53573 26.8415 5.43781 26.6006L2.77222 20.0712C2.50566 19.3661 2.18579 18.7001 1.83926 17.9819C0.737514 16.075 0.10756 13.9415 0 11.7528C0 8.6358 1.26377 5.64642 3.51331 3.44233C5.76284 1.23824 8.81386 2.6226e-06 11.9952 2.6226e-06C13.6398 0.000793065 15.2675 0.326112 16.7811 0.956557C18.2947 1.587 19.6632 2.50966 20.805 3.6695C21.8677 4.73477 22.6981 6.00072 23.2457 7.39036C23.7933 8.77999 24.0467 10.2642 23.9903 11.7528C23.8228 13.899 23.2057 15.9883 22.1777 17.8904C21.8579 18.5564 21.538 19.1963 21.2448 20.0059L18.5792 26.5353C18.4905 26.7926 18.3222 27.0164 18.0976 27.1755C17.8731 27.3347 17.6035 27.4213 17.3264 27.4233ZM7.57029 24.8116H16.4334L18.6592 19.1049C18.9657 18.3083 19.3122 17.577 19.6454 16.8588C20.5518 15.2856 21.1231 13.5486 21.3248 11.7528C21.3668 10.605 21.1698 9.46072 20.7459 8.38982C20.322 7.31893 19.68 6.3438 18.8591 5.52384C17.9722 4.61293 16.9077 3.8858 15.7286 3.38557C14.5496 2.88534 13.28 2.62219 11.9952 2.61175C9.52082 2.61175 7.1478 3.57482 5.39817 5.28911C3.64853 7.0034 2.66559 9.32847 2.66559 11.7528C2.78636 13.5499 3.32426 15.2963 4.2383 16.8588C4.61664 17.6026 4.95475 18.3654 5.25122 19.1441L7.57029 24.8116Z" fill="var(--fill-0, #263238)"/>
<path id="Vector_13" d="M14.6609 36.5644H9.32966C9.12554 36.5612 8.9249 36.512 8.74323 36.4208L6.07764 35.1149C5.85535 35.0082 5.66778 34.843 5.53596 34.6377C5.40413 34.4324 5.33325 34.1952 5.33127 33.9527V30.0351C5.33127 29.6887 5.47169 29.3566 5.72164 29.1117C5.97159 28.8668 6.31059 28.7292 6.66407 28.7292H17.3264C17.6799 28.7292 18.0189 28.8668 18.2689 29.1117C18.5188 29.3566 18.6592 29.6887 18.6592 30.0351V33.9527C18.6585 34.1938 18.5896 34.4301 18.4602 34.6352C18.3308 34.8404 18.146 35.0064 17.9262 35.1149L15.2606 36.4208C15.0749 36.514 14.8695 36.5632 14.6609 36.5644ZM9.64953 33.9527H14.3543L15.9936 33.143V31.3409H7.99686V33.143L9.64953 33.9527Z" fill="var(--fill-0, #263238)"/>
</g>
</svg>
