<svg preserveAspectRatio="xMidYMid meet" width="100%" height="100%" overflow="visible" style="display: block;" viewBox="0 0 37.3194 31.9872" fill="none" xmlns="http://www.w3.org/2000/svg">
<g id="Discuss">
<path id="Vector" d="M33.3205 5.33119H32.774L30.5216 0.746369C30.4117 0.522055 30.241 0.333143 30.0289 0.201177C29.8168 0.0692109 29.5719 -0.000497013 29.3221 2.88399e-06C29.0774 -0.000506165 28.8372 0.0663828 28.628 0.193336C28.4187 0.320289 28.2485 0.502404 28.1359 0.719713L25.7635 5.33119H3.99895C2.91839 5.35569 1.89141 5.80673 1.14226 6.58584C0.393123 7.36495 -0.0173203 8.40882 0.000560666 9.48951V27.8288C-0.0173203 28.9095 0.393123 29.9534 1.14226 30.7325C1.89141 31.5116 2.91839 31.9626 3.99895 31.9871H33.3205C34.4011 31.9626 35.428 31.5116 36.1772 30.7325C36.9263 29.9534 37.3368 28.9095 37.3189 27.8288V9.48951C37.3368 8.40882 36.9263 7.36495 36.1772 6.58584C35.428 5.80673 34.4011 5.35569 33.3205 5.33119Z" fill="var(--fill-0, #FFA000)"/>
<path id="Vector_2" d="M29.0021 19.8453C29.7257 19.6558 30.3816 19.2672 30.8953 18.7236C31.409 18.18 31.7599 17.5032 31.9082 16.7701C32.0565 16.037 31.9962 15.277 31.7341 14.5765C31.4721 13.876 31.0188 13.263 30.4258 12.8072C29.8328 12.3514 29.1239 12.0711 28.3795 11.998C27.6351 11.925 26.8852 12.0623 26.2149 12.3942C25.5447 12.726 24.9809 13.2393 24.5878 13.8755C24.1946 14.5118 23.9878 15.2456 23.9908 15.9935C23.9944 16.5892 24.131 17.1767 24.3907 17.7128C23.4781 17.4874 22.5446 17.3578 21.6051 17.3263C22.1301 16.7545 22.4772 16.0422 22.6042 15.2764C22.7311 14.5105 22.6324 13.7243 22.3201 13.0137C22.0078 12.303 21.4954 11.6986 20.8454 11.2743C20.1954 10.8499 19.4359 10.624 18.6596 10.624C17.8834 10.624 17.1239 10.8499 16.4739 11.2743C15.8239 11.6986 15.3114 12.303 14.9991 13.0137C14.6868 13.7243 14.5881 14.5105 14.7151 15.2764C14.8421 16.0422 15.1892 16.7545 15.7142 17.3263C14.7756 17.3491 13.8421 17.4697 12.9286 17.6862C13.1845 17.1581 13.321 16.5802 13.3284 15.9935C13.3315 15.2456 13.1246 14.5118 12.7315 13.8755C12.3383 13.2393 11.7746 12.726 11.1043 12.3942C10.4341 12.0623 9.68414 11.925 8.93977 11.998C8.19541 12.0711 7.48645 12.3514 6.89344 12.8072C6.30044 13.263 5.84716 13.876 5.58512 14.5765C5.32308 15.277 5.26278 16.037 5.41107 16.7701C5.55936 17.5032 5.91029 18.18 6.424 18.7236C6.93771 19.2672 7.59359 19.6558 8.31712 19.8453C7.43188 20.4674 6.702 21.2852 6.18421 22.2353C5.66643 23.1853 5.37469 24.242 5.33166 25.3231C5.33166 25.6766 5.47208 26.0156 5.72203 26.2655C5.97197 26.5155 6.31098 26.6559 6.66446 26.6559C7.01794 26.6559 7.35694 26.5155 7.60689 26.2655C7.85683 26.0156 7.99725 25.6766 7.99725 25.3231C7.99725 22.4309 11.7824 19.9919 16.2606 19.9919H21.0587C25.5369 19.9919 29.322 22.4309 29.322 25.3231C29.322 25.6766 29.4624 26.0156 29.7124 26.2655C29.9623 26.5155 30.3013 26.6559 30.6548 26.6559C31.0083 26.6559 31.3473 26.5155 31.5972 26.2655C31.8472 26.0156 31.9876 25.6766 31.9876 25.3231C31.9446 24.242 31.6528 23.1853 31.1351 22.2353C30.6173 21.2852 29.8874 20.4674 29.0021 19.8453ZM27.9892 14.6607C28.2528 14.6607 28.5105 14.7389 28.7297 14.8853C28.9489 15.0318 29.1197 15.2399 29.2206 15.4835C29.3214 15.727 29.3478 15.995 29.2964 16.2535C29.245 16.5121 29.118 16.7495 28.9316 16.9359C28.7452 17.1223 28.5078 17.2493 28.2492 17.3007C27.9907 17.3521 27.7227 17.3257 27.4792 17.2248C27.2356 17.124 27.0275 16.9531 26.881 16.734C26.7346 16.5148 26.6564 16.2571 26.6564 15.9935C26.6564 15.64 26.7968 15.301 27.0468 15.0511C27.2967 14.8011 27.6357 14.6607 27.9892 14.6607ZM9.33005 14.6607C9.59365 14.6607 9.85134 14.7389 10.0705 14.8853C10.2897 15.0318 10.4605 15.2399 10.5614 15.4835C10.6623 15.727 10.6887 15.995 10.6372 16.2535C10.5858 16.5121 10.4589 16.7495 10.2725 16.9359C10.0861 17.1223 9.8486 17.2493 9.59007 17.3007C9.33153 17.3521 9.06355 17.3257 8.82001 17.2248C8.57647 17.124 8.36832 16.9531 8.22187 16.734C8.07542 16.5148 7.99725 16.2571 7.99725 15.9935C7.99725 15.64 8.13767 15.301 8.38762 15.0511C8.63757 14.8011 8.97657 14.6607 9.33005 14.6607ZM18.6596 13.3279C18.9232 13.3279 19.1809 13.4061 19.4001 13.5525C19.6193 13.699 19.7901 13.9071 19.891 14.1507C19.9919 14.3942 20.0182 14.6622 19.9668 14.9207C19.9154 15.1793 19.7885 15.4167 19.6021 15.6031C19.4157 15.7895 19.1782 15.9165 18.9196 15.9679C18.6611 16.0193 18.3931 15.9929 18.1496 15.8921C17.9061 15.7912 17.6979 15.6203 17.5515 15.4012C17.405 15.182 17.3268 14.9243 17.3268 14.6607C17.3268 14.3072 17.4673 13.9682 17.7172 13.7183C17.9672 13.4683 18.3062 13.3279 18.6596 13.3279Z" fill="var(--fill-0, #1A237E)"/>
<path id="Vector_3" d="M3.99905 5.33125C2.91849 5.35574 1.89151 5.80679 1.14237 6.5859C0.393223 7.36501 -0.0172195 8.40888 0.000661419 9.48957L0.000661419 27.8288C-0.0172195 28.9095 0.393223 29.9534 1.14237 30.7325C1.89151 31.5116 2.91849 31.9627 3.99905 31.9872H18.6598V5.33125L3.99905 5.33125Z" fill="var(--fill-0, #FFB300)"/>
<path id="Vector_4" d="M17.3273 14.6609C17.3273 14.3074 17.4677 13.9684 17.7176 13.7185C17.9676 13.4685 18.3066 13.3281 18.6601 13.3281V10.6625C17.8911 10.6692 17.1405 10.8974 16.498 11.3198C15.8555 11.7423 15.3484 12.341 15.0376 13.0443C14.7267 13.7476 14.6252 14.5256 14.7453 15.2851C14.8654 16.0446 15.2019 16.7534 15.7146 17.3265C14.7761 17.3493 13.8425 17.4699 12.929 17.6864C13.1849 17.1583 13.3214 16.5804 13.3289 15.9937C13.3319 15.2458 13.1251 14.512 12.7319 13.8757C12.3387 13.2395 11.775 12.7262 11.1047 12.3943C10.4345 12.0625 9.68456 11.9252 8.94019 11.9982C8.19583 12.0712 7.48687 12.3516 6.89386 12.8074C6.30086 13.2632 5.84758 13.8762 5.58554 14.5767C5.3235 15.2772 5.2632 16.0372 5.41149 16.7703C5.55978 17.5034 5.91071 18.1802 6.42442 18.7238C6.93813 19.2674 7.59401 19.656 8.31754 19.8455C7.43229 20.4676 6.70242 21.2854 6.18463 22.2355C5.66685 23.1855 5.37511 24.2422 5.33208 25.3233C5.33208 25.6768 5.4725 26.0158 5.72245 26.2657C5.97239 26.5157 6.3114 26.6561 6.66488 26.6561C7.01836 26.6561 7.35736 26.5157 7.60731 26.2657C7.85725 26.0158 7.99767 25.6768 7.99767 25.3233C7.99767 22.4311 11.7828 19.9921 16.261 19.9921H18.6601V15.9937C18.3066 15.9937 17.9676 15.8533 17.7176 15.6033C17.4677 15.3534 17.3273 15.0144 17.3273 14.6609ZM9.33047 17.3265C9.06687 17.3265 8.80919 17.2483 8.59001 17.1019C8.37083 16.9554 8.2 16.7473 8.09913 16.5037C7.99825 16.2602 7.97186 15.9922 8.02328 15.7337C8.07471 15.4751 8.20165 15.2377 8.38804 15.0513C8.57444 14.8649 8.81192 14.7379 9.07045 14.6865C9.32899 14.6351 9.59697 14.6615 9.84051 14.7624C10.084 14.8632 10.2922 15.0341 10.4387 15.2532C10.5851 15.4724 10.6633 15.7301 10.6633 15.9937C10.6633 16.3472 10.5228 16.6862 10.2729 16.9361C10.023 17.1861 9.68395 17.3265 9.33047 17.3265Z" fill="var(--fill-0, #303F9F)"/>
<path id="Vector_5" d="M33.3205 5.33119H32.774L30.5216 0.746369C30.4117 0.522055 30.241 0.333143 30.0289 0.201177C29.8168 0.0692109 29.5719 -0.000497013 29.3221 2.88399e-06C29.0774 -0.000506165 28.8372 0.0663828 28.628 0.193336C28.4187 0.320289 28.2485 0.502404 28.1359 0.719713L25.7635 5.33119H3.99895C2.91839 5.35569 1.89141 5.80673 1.14226 6.58584C0.393123 7.36495 -0.0173203 8.40882 0.000560666 9.48951V27.8288C-0.0173203 28.9095 0.393123 29.9534 1.14226 30.7325C1.89141 31.5116 2.91839 31.9626 3.99895 31.9871H33.3205C34.4011 31.9626 35.428 31.5116 36.1772 30.7325C36.9263 29.9534 37.3368 28.9095 37.3189 27.8288V9.48951C37.3368 8.40882 36.9263 7.36495 36.1772 6.58584C35.428 5.80673 34.4011 5.35569 33.3205 5.33119ZM34.6533 27.8288C34.6716 28.2028 34.542 28.5689 34.2927 28.8482C34.0433 29.1275 33.6941 29.2975 33.3205 29.3215H3.99895C3.62532 29.2975 3.27613 29.1275 3.02677 28.8482C2.77741 28.5689 2.64789 28.2028 2.66616 27.8288V9.48951C2.64789 9.11556 2.77741 8.74941 3.02677 8.47013C3.27613 8.19085 3.62532 8.02083 3.99895 7.99678H26.5765C26.8213 7.99729 27.0614 7.9304 27.2707 7.80345C27.4799 7.6765 27.6501 7.49438 27.7627 7.27707L29.3221 4.29161L30.7749 7.25042C30.8857 7.47678 31.0586 7.66706 31.2732 7.79917C31.4879 7.93128 31.7356 7.9998 31.9877 7.99678H33.3205C33.6941 8.02083 34.0433 8.19085 34.2927 8.47013C34.542 8.74941 34.6716 9.11556 34.6533 9.48951V27.8288Z" fill="var(--fill-0, #263238)"/>
</g>
</svg>
