<svg preserveAspectRatio="xMidYMid meet" width="100%" height="100%" overflow="visible" style="display: block;" viewBox="0 0 37.3184 31.9872" fill="none" xmlns="http://www.w3.org/2000/svg">
<g id="Schedule">
<path id="Vector" d="M33.32 3.99842L3.99848 3.99842C1.79023 3.99842 9.0661e-05 5.78856 9.0661e-05 7.99681L9.0661e-05 27.9888C9.0661e-05 30.197 1.79023 31.9872 3.99848 31.9872L33.32 31.9872C35.5283 31.9872 37.3184 30.197 37.3184 27.9888V7.99681C37.3184 5.78856 35.5283 3.99842 33.32 3.99842Z" fill="var(--fill-0, #9FA8DA)"/>
<path id="Vector_2" d="M37.3184 7.99681V10.6624L1.33289 10.6624H9.0661e-05L9.0661e-05 7.99681C9.0661e-05 6.93637 0.421349 5.91937 1.17119 5.16953C1.92104 4.41968 2.93804 3.99842 3.99848 3.99842L33.32 3.99842C34.3805 3.99842 35.3975 4.41968 36.1473 5.16953C36.8972 5.91937 37.3184 6.93637 37.3184 7.99681Z" fill="var(--fill-0, #1A237E)"/>
<path id="Vector_3" d="M11.9954 6.66411C11.6419 6.66411 11.3029 6.5237 11.053 6.27375C10.803 6.0238 10.6626 5.6848 10.6626 5.33132V2.66572H7.99701V5.33132C7.99701 5.6848 7.85659 6.0238 7.60664 6.27375C7.35669 6.5237 7.01769 6.66411 6.66421 6.66411C6.31073 6.66411 5.97173 6.5237 5.72178 6.27375C5.47183 6.0238 5.33141 5.6848 5.33141 5.33132V1.33293C5.33141 0.979448 5.47183 0.640446 5.72178 0.390498C5.97173 0.140551 6.31073 0.000131405 6.66421 0.000131405L11.9954 0.000131405C12.3489 0.000131405 12.6879 0.140551 12.9378 0.390498C13.1878 0.640446 13.3282 0.979448 13.3282 1.33293V5.33132C13.3282 5.6848 13.1878 6.0238 12.9378 6.27375C12.6879 6.5237 12.3489 6.66411 11.9954 6.66411Z" fill="var(--fill-0, #283593)"/>
<path id="Vector_4" d="M30.6543 6.66398C30.3008 6.66398 29.9618 6.52356 29.7119 6.27362C29.4619 6.02367 29.3215 5.68467 29.3215 5.33119V2.66559H26.6559V5.33119C26.6559 5.68467 26.5155 6.02367 26.2656 6.27362C26.0156 6.52356 25.6766 6.66398 25.3231 6.66398C24.9697 6.66398 24.6307 6.52356 24.3807 6.27362C24.1308 6.02367 23.9903 5.68467 23.9903 5.33119V1.3328C23.9903 0.979317 24.1308 0.640315 24.3807 0.390367C24.6307 0.140419 24.9697 0 25.3231 0L30.6543 0C31.0078 0 31.3468 0.140419 31.5968 0.390367C31.8467 0.640315 31.9871 0.979317 31.9871 1.3328V5.33119C31.9871 5.68467 31.8467 6.02367 31.5968 6.27362C31.3468 6.52356 31.0078 6.66398 30.6543 6.66398Z" fill="var(--fill-0, #1A237E)"/>
<path id="Vector_5" d="M9.32947 22.6575H7.99668C7.26059 22.6575 6.66388 23.2542 6.66388 23.9903V25.3231C6.66388 26.0592 7.26059 26.6559 7.99668 26.6559H9.32947C10.0656 26.6559 10.6623 26.0592 10.6623 25.3231V23.9903C10.6623 23.2542 10.0656 22.6575 9.32947 22.6575Z" fill="var(--fill-0, #0D47A1)"/>
<path id="Vector_6" d="M15.9938 15.9936H14.661C13.9249 15.9936 13.3282 16.5903 13.3282 17.3264V18.6592C13.3282 19.3953 13.9249 19.992 14.661 19.992H15.9938C16.7299 19.992 17.3266 19.3953 17.3266 18.6592V17.3264C17.3266 16.5903 16.7299 15.9936 15.9938 15.9936Z" fill="var(--fill-0, #0D47A1)"/>
<path id="Vector_7" d="M15.9938 22.6577H14.661C13.9249 22.6577 13.3282 23.2544 13.3282 23.9905V25.3233C13.3282 26.0593 13.9249 26.656 14.661 26.656H15.9938C16.7298 26.656 17.3266 26.0593 17.3266 25.3233V23.9905C17.3266 23.2544 16.7298 22.6577 15.9938 22.6577Z" fill="var(--fill-0, #0D47A1)"/>
<path id="Vector_8" d="M22.6576 15.9935H21.3248C20.5887 15.9935 19.992 16.5902 19.992 17.3263V18.6591C19.992 19.3952 20.5887 19.9919 21.3248 19.9919H22.6576C23.3937 19.9919 23.9904 19.3952 23.9904 18.6591V17.3263C23.9904 16.5902 23.3937 15.9935 22.6576 15.9935Z" fill="var(--fill-0, #0D47A1)"/>
<path id="Vector_9" d="M22.6576 22.6576H21.3248C20.5887 22.6576 19.992 23.2543 19.992 23.9903V25.3231C19.992 26.0592 20.5887 26.6559 21.3248 26.6559H22.6576C23.3936 26.6559 23.9904 26.0592 23.9904 25.3231V23.9903C23.9904 23.2543 23.3936 22.6576 22.6576 22.6576Z" fill="var(--fill-0, #0D47A1)"/>
<path id="Vector_10" d="M29.3219 15.9937H27.9891C27.253 15.9937 26.6563 16.5904 26.6563 17.3265V18.6593C26.6563 19.3954 27.253 19.9921 27.9891 19.9921H29.3219C30.058 19.9921 30.6547 19.3954 30.6547 18.6593V17.3265C30.6547 16.5904 30.058 15.9937 29.3219 15.9937Z" fill="var(--fill-0, #C2185B)"/>
<path id="Vector_11" d="M29.3218 22.6577H27.989C27.253 22.6577 26.6562 23.2544 26.6562 23.9905V25.3233C26.6562 26.0594 27.253 26.6561 27.989 26.6561H29.3218C30.0579 26.6561 30.6546 26.0594 30.6546 25.3233V23.9905C30.6546 23.2544 30.0579 22.6577 29.3218 22.6577Z" fill="var(--fill-0, #0D47A1)"/>
<path id="Vector_12" d="M3.99848 3.99842C2.93804 3.99842 1.92104 4.41968 1.17119 5.16953C0.421349 5.91937 9.0661e-05 6.93637 9.0661e-05 7.99681L9.0661e-05 27.9888C9.0661e-05 29.0492 0.421349 30.0662 1.17119 30.816C1.92104 31.5659 2.93804 31.9872 3.99848 31.9872L18.6593 31.9872V3.99842L3.99848 3.99842Z" fill="var(--fill-0, #C5CAE9)"/>
<path id="Vector_13" d="M3.99848 3.99842C2.93804 3.99842 1.92104 4.41968 1.17119 5.16953C0.421349 5.91937 9.0661e-05 6.93637 9.0661e-05 7.99681L9.0661e-05 10.6624H1.33289L18.6593 10.6624V3.99842L3.99848 3.99842Z" fill="var(--fill-0, #283593)"/>
<path id="Vector_14" d="M11.9954 6.66411C11.6419 6.66411 11.3029 6.5237 11.053 6.27375C10.803 6.0238 10.6626 5.6848 10.6626 5.33132V2.66572H7.99701V5.33132C7.99701 5.6848 7.85659 6.0238 7.60664 6.27375C7.35669 6.5237 7.01769 6.66411 6.66421 6.66411C6.31073 6.66411 5.97173 6.5237 5.72178 6.27375C5.47183 6.0238 5.33141 5.6848 5.33141 5.33132V1.33293C5.33141 0.979448 5.47183 0.640446 5.72178 0.390498C5.97173 0.140551 6.31073 0.000131405 6.66421 0.000131405L11.9954 0.000131405C12.3489 0.000131405 12.6879 0.140551 12.9378 0.390498C13.1878 0.640446 13.3282 0.979448 13.3282 1.33293V5.33132C13.3282 5.6848 13.1878 6.0238 12.9378 6.27375C12.6879 6.5237 12.3489 6.66411 11.9954 6.66411Z" fill="var(--fill-0, #283593)"/>
<path id="Vector_15" d="M9.32947 22.6575H7.99668C7.26059 22.6575 6.66388 23.2542 6.66388 23.9903V25.3231C6.66388 26.0592 7.26059 26.6559 7.99668 26.6559H9.32947C10.0656 26.6559 10.6623 26.0592 10.6623 25.3231V23.9903C10.6623 23.2542 10.0656 22.6575 9.32947 22.6575Z" fill="var(--fill-0, #EC407A)"/>
<path id="Vector_16" d="M15.9938 15.9936H14.661C13.9249 15.9936 13.3282 16.5903 13.3282 17.3264V18.6592C13.3282 19.3953 13.9249 19.992 14.661 19.992H15.9938C16.7299 19.992 17.3266 19.3953 17.3266 18.6592V17.3264C17.3266 16.5903 16.7299 15.9936 15.9938 15.9936Z" fill="var(--fill-0, #1565C0)"/>
<path id="Vector_17" d="M15.9938 22.6577H14.661C13.9249 22.6577 13.3282 23.2544 13.3282 23.9905V25.3233C13.3282 26.0593 13.9249 26.656 14.661 26.656H15.9938C16.7298 26.656 17.3266 26.0593 17.3266 25.3233V23.9905C17.3266 23.2544 16.7298 22.6577 15.9938 22.6577Z" fill="var(--fill-0, #1565C0)"/>
<path id="Vector_18" d="M33.3199 3.99841H31.9871V1.33281C31.9871 0.979335 31.8467 0.640333 31.5968 0.390385C31.3468 0.140437 31.0078 1.79076e-05 30.6543 1.79076e-05H25.3231C24.9697 1.79076e-05 24.6307 0.140437 24.3807 0.390385C24.1308 0.640333 23.9904 0.979335 23.9904 1.33281V3.99841H13.328V1.33281C13.328 0.979335 13.1876 0.640333 12.9376 0.390385C12.6877 0.140437 12.3487 1.79076e-05 11.9952 1.79076e-05H6.66399C6.31051 1.79076e-05 5.9715 0.140437 5.72156 0.390385C5.47161 0.640333 5.33119 0.979335 5.33119 1.33281V3.99841H3.99839C2.93795 3.99841 1.92095 4.41967 1.1711 5.16951C0.421258 5.91935 0 6.93636 0 7.9968V27.9887C0 29.0492 0.421258 30.0662 1.1711 30.816C1.92095 31.5659 2.93795 31.9871 3.99839 31.9871H33.3199C34.3804 31.9871 35.3974 31.5659 36.1472 30.816C36.8971 30.0662 37.3183 29.0492 37.3183 27.9887V7.9968C37.3183 6.93636 36.8971 5.91935 36.1472 5.16951C35.3974 4.41967 34.3804 3.99841 33.3199 3.99841ZM26.6559 2.66561H29.3215V3.99841H26.6559V2.66561ZM7.99678 2.66561H10.6624V3.99841H7.99678V2.66561ZM3.99839 6.664H33.3199C33.6734 6.664 34.0124 6.80442 34.2624 7.05437C34.5123 7.30431 34.6527 7.64332 34.6527 7.9968V10.6624H2.66559V7.9968C2.66559 7.64332 2.80601 7.30431 3.05596 7.05437C3.30591 6.80442 3.64491 6.664 3.99839 6.664ZM33.3199 29.3215H3.99839C3.64491 29.3215 3.30591 29.1811 3.05596 28.9312C2.80601 28.6812 2.66559 28.3422 2.66559 27.9887V13.328H34.6527V27.9887C34.6527 28.3422 34.5123 28.6812 34.2624 28.9312C34.0124 29.1811 33.6734 29.3215 33.3199 29.3215Z" fill="var(--fill-0, #263238)"/>
</g>
</svg>
