<svg preserveAspectRatio="xMidYMid meet" width="100%" height="100%" overflow="visible" style="display: block;" viewBox="0 0 36.5646 35.9786" fill="none" xmlns="http://www.w3.org/2000/svg">
<g id="School">
<path id="Vector" d="M27.4233 7.3234V35.9785H9.14106L9.14106 7.3234C9.13971 6.88331 9.24513 6.44973 9.44793 6.06135C9.65073 5.67297 9.94459 5.34188 10.3033 5.09763L16.8326 0.659418C17.2618 0.367166 17.7662 0.2112 18.2822 0.2112C18.7981 0.2112 19.3025 0.367166 19.7317 0.659418L26.261 5.09763C26.6197 5.34188 26.9136 5.67297 27.1164 6.06135C27.3192 6.44973 27.4246 6.88331 27.4233 7.3234Z" fill="var(--fill-0, #2E7D32)"/>
<path id="Vector_2" d="M32.6467 17.3193H27.4233V35.9785H32.6467C33.6858 35.9785 34.6822 35.5572 35.4169 34.8074C36.1516 34.0575 36.5644 33.0405 36.5644 31.9801V21.3177C36.5644 20.2573 36.1516 19.2403 35.4169 18.4904C34.6822 17.7406 33.6858 17.3193 32.6467 17.3193Z" fill="var(--fill-0, #FF6F00)"/>
<path id="Vector_3" d="M20.8939 19.985H15.6704C15.3241 19.985 14.992 20.1254 14.7471 20.3753C14.5022 20.6253 14.3646 20.9643 14.3646 21.3178V35.9785H16.9763V22.6506H19.5881V35.9785H22.1998V21.3178C22.1998 20.9643 22.0622 20.6253 21.8173 20.3753C21.5724 20.1254 21.2403 19.985 20.8939 19.985Z" fill="var(--fill-0, #263238)"/>
<path id="Vector_4" d="M20.8939 10.6554H15.6705C15.3241 10.6554 14.992 10.5149 14.7471 10.265C14.5022 10.015 14.3646 9.67605 14.3646 9.32257C14.3646 8.96909 14.5022 8.63009 14.7471 8.38014C14.992 8.13019 15.3241 7.98977 15.6705 7.98977L20.8939 7.98977C21.2403 7.98977 21.5724 8.13019 21.8173 8.38014C22.0622 8.63009 22.1998 8.96909 22.1998 9.32257C22.1998 9.67605 22.0622 10.015 21.8173 10.265C21.5724 10.5149 21.2403 10.6554 20.8939 10.6554Z" fill="var(--fill-0, #F5F5F5)"/>
<path id="Vector_5" d="M20.8939 15.9866H15.6704C15.3241 15.9866 14.992 15.8462 14.7471 15.5962C14.5022 15.3463 14.3646 15.0073 14.3646 14.6538C14.3646 14.3003 14.5022 13.9613 14.7471 13.7113C14.992 13.4614 15.3241 13.321 15.6704 13.321H20.8939C21.2403 13.321 21.5724 13.4614 21.8173 13.7113C22.0622 13.9613 22.1998 14.3003 22.1998 14.6538C22.1998 15.0073 22.0622 15.3463 21.8173 15.5962C21.5724 15.8462 21.2403 15.9866 20.8939 15.9866Z" fill="var(--fill-0, #F5F5F5)"/>
<path id="Vector_6" d="M16.8588 0.659388L10.3294 5.0976C9.96589 5.33877 9.66691 5.66852 9.45944 6.0571C9.25198 6.44567 9.14257 6.88085 9.14108 7.32337L9.14108 35.9652H18.2822V0.259549C17.7804 0.254029 17.2872 0.392577 16.8588 0.659388Z" fill="var(--fill-0, #388E3C)"/>
<path id="Vector_7" d="M15.6704 19.9716C15.3241 19.9716 14.9919 20.112 14.747 20.3619C14.5021 20.6119 14.3645 20.9509 14.3645 21.3044V35.9651H16.9763V22.6372H18.2821V19.9716H15.6704Z" fill="var(--fill-0, #37474F)"/>
<path id="Vector_8" d="M15.6704 7.97645C15.324 7.97645 14.9919 8.11687 14.747 8.36681C14.5021 8.61676 14.3645 8.95576 14.3645 9.30924C14.3645 9.66272 14.5021 10.0017 14.747 10.2517C14.9919 10.5016 15.324 10.642 15.6704 10.642H18.2821V7.97645H15.6704Z" fill="var(--fill-0, #F5F5F5)"/>
<path id="Vector_9" d="M15.6704 13.3076C15.3241 13.3076 14.9919 13.448 14.747 13.698C14.5021 13.9479 14.3645 14.2869 14.3645 14.6404C14.3645 14.9939 14.5021 15.3329 14.747 15.5828C14.9919 15.8328 15.3241 15.9732 15.6704 15.9732H18.2821V13.3076H15.6704Z" fill="var(--fill-0, #F5F5F5)"/>
<path id="Vector_10" d="M3.91762 17.3061C3.40315 17.3061 2.89372 17.4095 2.41841 17.6104C1.9431 17.8114 1.51123 18.1059 1.14744 18.4772C0.783659 18.8485 0.495089 19.2892 0.298211 19.7744C0.101332 20.2595 0 20.7794 0 21.3045L0 31.9668C0 33.0273 0.412748 34.0443 1.14744 34.7941C1.88214 35.544 2.8786 35.9652 3.91762 35.9652H9.1411L9.1411 17.3061H3.91762Z" fill="var(--fill-0, #F9A825)"/>
<path id="Vector_11" d="M32.647 17.3195H27.4235V6.6571C27.4224 6.43758 27.3682 6.22174 27.2657 6.02875C27.1632 5.83577 27.0155 5.67161 26.8359 5.55088L19.0006 0.219692C18.7874 0.0763797 18.5377 0 18.2824 0C18.0271 0 17.7774 0.0763797 17.5642 0.219692L9.72896 5.55088C9.54932 5.67161 9.40169 5.83577 9.29917 6.02875C9.19665 6.22174 9.14243 6.43758 9.14132 6.6571V17.3195H3.91783C2.87881 17.3195 1.88235 17.7407 1.14766 18.4906C0.41296 19.2404 0.000212046 20.2574 0.000212046 21.3179V34.6458C0.000212046 34.9993 0.137795 35.3383 0.382693 35.5883C0.627592 35.8382 0.959745 35.9786 1.30608 35.9786H35.2588C35.6051 35.9786 35.9373 35.8382 36.1822 35.5883C36.427 35.3383 36.5646 34.9993 36.5646 34.6458V21.3179C36.5646 20.2574 36.1519 19.2404 35.4172 18.4906C34.6825 17.7407 33.686 17.3195 32.647 17.3195ZM2.61196 21.3179C2.61196 20.9644 2.74954 20.6254 2.99444 20.3754C3.23934 20.1255 3.57149 19.9851 3.91783 19.9851H9.14132V33.313H2.61196V21.3179ZM11.7531 18.6523V7.3235L18.2824 2.92527L24.8118 7.3235V33.313H11.7531V18.6523ZM33.9529 33.313H27.4235V19.9851H32.647C32.9934 19.9851 33.3255 20.1255 33.5704 20.3754C33.8153 20.6254 33.9529 20.9644 33.9529 21.3179V33.313Z" fill="var(--fill-0, #263238)"/>
</g>
</svg>
