<svg preserveAspectRatio="xMidYMid meet" width="100%" height="100%" overflow="visible" style="display: block;" viewBox="0 0 37.3183 26.656" fill="none" xmlns="http://www.w3.org/2000/svg">
<g id="Book">
<path id="Vector" d="M33.3199 0.000114234H3.99839C1.79014 0.000114234 0 1.79025 0 3.9985V22.6577C0 24.8659 1.79014 26.656 3.99839 26.656H33.3199C35.5282 26.656 37.3183 24.8659 37.3183 22.6577V3.9985C37.3183 1.79025 35.5282 0.000114234 33.3199 0.000114234Z" fill="var(--fill-0, #388E3C)"/>
<path id="Vector_2" d="M18.6592 0.000114234V26.656H3.99839C2.93795 26.656 1.92095 26.2348 1.1711 25.4849C0.421258 24.7351 0 23.7181 0 22.6577V3.9985C0 2.93806 0.421258 1.92106 1.1711 1.17122C1.92095 0.421372 2.93795 0.000114234 3.99839 0.000114234H18.6592Z" fill="var(--fill-0, #66BB6A)"/>
<path id="Vector_3" d="M13.3279 0V18.6592C13.3279 19.0126 13.1874 19.3516 12.9375 19.6016C12.6875 19.8515 12.3485 19.9919 11.9951 19.9919C11.6416 19.9919 11.3026 19.8515 11.0526 19.6016C10.8027 19.3516 10.6623 19.0126 10.6623 18.6592L10.6623 0L13.3279 0Z" fill="var(--fill-0, #F5F5F5)"/>
<path id="Vector_4" d="M30.6546 9.32989H23.9906C23.6372 9.32989 23.2982 9.18947 23.0482 8.93952C22.7983 8.68957 22.6578 8.35057 22.6578 7.99709C22.6578 7.64361 22.7983 7.30461 23.0482 7.05466C23.2982 6.80472 23.6372 6.6643 23.9906 6.6643L30.6546 6.6643C31.0081 6.6643 31.3471 6.80472 31.5971 7.05466C31.847 7.30461 31.9874 7.64361 31.9874 7.99709C31.9874 8.35057 31.847 8.68957 31.5971 8.93952C31.3471 9.18947 31.0081 9.32989 30.6546 9.32989Z" fill="var(--fill-0, #E0E0E0)"/>
<path id="Vector_5" d="M30.6545 14.6609H26.6561C26.3026 14.6609 25.9636 14.5205 25.7137 14.2705C25.4637 14.0206 25.3233 13.6816 25.3233 13.3281C25.3233 12.9746 25.4637 12.6356 25.7137 12.3857C25.9636 12.1357 26.3026 11.9953 26.6561 11.9953H30.6545C31.008 11.9953 31.347 12.1357 31.5969 12.3857C31.8469 12.6356 31.9873 12.9746 31.9873 13.3281C31.9873 13.6816 31.8469 14.0206 31.5969 14.2705C31.347 14.5205 31.008 14.6609 30.6545 14.6609Z" fill="var(--fill-0, #E0E0E0)"/>
<path id="Vector_6" d="M30.6547 19.9922H23.9907C23.6372 19.9922 23.2982 19.8518 23.0483 19.6018C22.7983 19.3519 22.6579 19.0129 22.6579 18.6594C22.6579 18.3059 22.7983 17.9669 23.0483 17.717C23.2982 17.467 23.6372 17.3266 23.9907 17.3266H30.6547C31.0081 17.3266 31.3472 17.467 31.5971 17.717C31.847 17.9669 31.9875 18.3059 31.9875 18.6594C31.9875 19.0129 31.847 19.3519 31.5971 19.6018C31.3472 19.8518 31.0081 19.9922 30.6547 19.9922Z" fill="var(--fill-0, #E0E0E0)"/>
<path id="Vector_7" d="M33.3199 0.000114234H3.99839C2.93795 0.000114234 1.92095 0.421372 1.1711 1.17122C0.421258 1.92106 0 2.93806 0 3.9985V22.6577C0 23.7181 0.421258 24.7351 1.1711 25.4849C1.92095 26.2348 2.93795 26.656 3.99839 26.656H33.3199C34.3804 26.656 35.3974 26.2348 36.1472 25.4849C36.8971 24.7351 37.3183 23.7181 37.3183 22.6577V3.9985C37.3183 2.93806 36.8971 1.92106 36.1472 1.17122C35.3974 0.421372 34.3804 0.000114234 33.3199 0.000114234ZM2.66559 22.6577V3.9985C2.66559 3.64502 2.80601 3.30602 3.05596 3.05607C3.30591 2.80613 3.64491 2.66571 3.99839 2.66571H17.3264V23.9905H3.99839C3.64491 23.9905 3.30591 23.85 3.05596 23.6001C2.80601 23.3501 2.66559 23.0111 2.66559 22.6577ZM34.6527 22.6577C34.6527 23.0111 34.5123 23.3501 34.2624 23.6001C34.0124 23.85 33.6734 23.9905 33.3199 23.9905H19.992V2.66571H33.3199C33.6734 2.66571 34.0124 2.80613 34.2624 3.05607C34.5123 3.30602 34.6527 3.64502 34.6527 3.9985V22.6577Z" fill="var(--fill-0, #263238)"/>
</g>
</svg>
